<svg xmlns="http://www.w3.org/2000/svg" width="79" height="80" fill="none"><g clip-path="url(#a)"><path fill="#000" d="M74.022 66.708H62.848a1.157 1.157 0 1 0 0 2.314h10.017v.653l-16.85 3.2H22.238l-16.85-3.2v-.653h53.163a1.157 1.157 0 1 0 0-2.314h-7.464a22.396 22.396 0 0 0 7.93-8.681c1.462.595 3.012.898 4.618.898 6.778 0 12.291-5.515 12.291-12.293 0-6.777-5.513-12.291-12.29-12.291-.735 0-1.463.066-2.178.194v-.662a2.69 2.69 0 0 0-2.686-2.686h-5.473a1.157 1.157 0 1 0 0 2.314h5.473c.205 0 .372.167.372.372v1.968H19.108v-1.968c0-.205.167-.371.372-.371H49a1.157 1.157 0 1 0 0-2.315H19.48a2.69 2.69 0 0 0-2.686 2.686V47.85c0 1.745.204 3.475.601 5.156-1.883-.562-4.127-.12-6.175 1.281a1.157 1.157 0 1 0 1.307 1.91c1.342-.918 2.75-1.279 3.915-1.045l-4.215 6.306a1.157 1.157 0 1 0 1.924 1.287l4.216-6.31c.437.65.677 1.5.688 2.49v.007c.016 1.529-.518 3.182-1.503 4.656a9.094 9.094 0 0 1-1.978 2.145 7.291 7.291 0 0 1-1.63.975h-3.656a2.6 2.6 0 0 1-.125-.079c-1.927-1.287-2.049-4.615-.278-7.576A1.157 1.157 0 0 0 7.9 57.865c-1.13 1.888-1.68 3.991-1.553 5.923.073 1.096.36 2.083.832 2.92H4.23c-.64 0-1.157.518-1.157 1.157v2.768c0 .556.395 1.033.941 1.137L21.032 75v3.425c0 .64.518 1.157 1.158 1.157h33.872c.64 0 1.157-.518 1.157-1.157v-3.424l17.02-3.232c.545-.104.94-.581.94-1.137v-2.768c0-.64-.517-1.157-1.157-1.157ZM61.458 47.849v-5.475a4.754 4.754 0 0 1 2.177-.527 4.79 4.79 0 0 1 4.785 4.785 4.79 4.79 0 0 1-4.785 4.785c-.84 0-1.65-.219-2.369-.63.126-.966.192-1.947.192-2.938Zm-.631 5.304c.88.38 1.83.578 2.808.578 3.915 0 7.1-3.184 7.1-7.099 0-3.914-3.185-7.1-7.1-7.1-.747 0-1.48.118-2.177.343v-2.979c.71-.16 1.44-.24 2.177-.24 5.501 0 9.977 4.475 9.977 9.976 0 5.502-4.476 9.978-9.977 9.978a9.88 9.88 0 0 1-3.67-.7c.347-.897.634-1.818.862-2.757ZM19.108 38.155h40.035V47.85a19.893 19.893 0 0 1-5.861 14.156 20.143 20.143 0 0 1-7.427 4.703H32.4a19.571 19.571 0 0 1-1.111-.432c.849-1.335 1.172-2.82.893-4.236l-.001-.006-.002-.006c-.369-1.842-1.67-3.357-3.664-4.267-1.869-.852-4.153-1.073-6.431-.62a12.09 12.09 0 0 0-.616.14 20 20 0 0 1-2.36-9.431v-9.695Zm.368 26.72c1.072-1.604 1.718-3.401 1.862-5.143.389-.13.788-.24 1.197-.322 2.944-.584 5.784.302 6.916 1.987l-7.438 1.479a1.157 1.157 0 1 0 .452 2.27l7.441-1.48c-.148.761-.572 1.525-1.252 2.226l-.005.005c-.284.291-.604.562-.953.81h-9.73c.554-.547 1.06-1.16 1.51-1.833Zm35.429 12.394H23.347v-2.08h31.558v2.08Z"/><g fill="#000"><path d="M42.138 23.72c-.02.014-.038.024-.05.032l.05-.032ZM42.088 23.752c-.031.02-.028.017 0 0Z"/><path d="M44.644 13.216A7.884 7.884 0 0 0 47.1 7.478 7.896 7.896 0 0 0 43.386.761a1.157 1.157 0 1 0-1.233 1.96 5.593 5.593 0 0 1 2.632 4.757c0 1.942-.984 3.72-2.632 4.758-.707.444-.707 1.513 0 1.959a5.594 5.594 0 0 1 2.632 4.758 5.593 5.593 0 0 1-2.647 4.767l.015-.01a1.157 1.157 0 0 0 1.233 1.96 7.896 7.896 0 0 0 3.713-6.717 7.885 7.885 0 0 0-2.455-5.737ZM42.757 23.33c.027-.017.03-.02 0 0Zm-.15.095.069-.044-.07.044Z"/></g><path fill="#000" d="M51.53 12.236a1.157 1.157 0 1 0-1.233 1.959 5.594 5.594 0 0 1 2.632 4.758c0 1.942-.984 3.72-2.632 4.758a1.157 1.157 0 0 0 1.233 1.959 7.896 7.896 0 0 0 3.713-6.717 7.896 7.896 0 0 0-3.713-6.717ZM34.575 12.236a1.157 1.157 0 1 0-1.233 1.959 5.593 5.593 0 0 1 2.632 4.758c0 1.942-.983 3.72-2.632 4.758a1.157 1.157 0 0 0 1.233 1.959 7.896 7.896 0 0 0 3.714-6.717 7.896 7.896 0 0 0-3.714-6.717Z"/></g><defs><clipPath id="a"><path fill="#fff" d="M0 .583h79v79H0z"/></clipPath></defs></svg>