<svg width="73" height="53" fill="none" xmlns="http://www.w3.org/2000/svg"><g clip-path="url(#a)" fill="#000"><path d="M0 31.922c.111-1.654.189-3.723.406-5.779.172-1.622.485-3.232.793-4.835.267-1.39.57-2.778.94-4.145.323-1.197.722-2.38 1.16-3.543.5-1.336 1.071-2.646 1.629-3.961.215-.508.45-1.012.733-1.483.123-.203.372-.384.603-.465.973-.338 2.095.371 2.132 1.378.013.354-.17.727-.314 1.071-.55 1.317-1.162 2.611-1.671 3.943a41.368 41.368 0 0 0-1.138 3.517 58.575 58.575 0 0 0-.989 3.966c-.257 1.238-.43 2.496-.615 3.748a46.06 46.06 0 0 0-.474 7.58c.036 2.026.152 4.05.466 6.055.238 1.518.46 3.04.775 4.543.265 1.268.648 2.512.981 3.767.048.177.092.357.155.528.132.369.195.403.57.274.937-.324 1.713-.867 2.288-1.674a7.51 7.51 0 0 0 1.241-2.944c.353-1.816.601-3.652.94-5.47.314-1.69.6-3.393 1.055-5.048.686-2.5 1.889-4.746 3.849-6.535.588-.536 1.229-1.016 1.812-1.558 1.214-1.127 2.095-2.473 2.534-4.066.365-1.327.358-2.674.117-4.026-.162-.895-.28-1.798-.42-2.696-.182-1.177-.342-2.358-.557-3.53-.188-1.016-1.241-1.665-2.354-1.516-.452.062-.886.224-1.363.072-.614-.195-1.097-.836-1.075-1.513.024-.702.502-1.361 1.138-1.454.703-.101 1.427-.233 2.125-.17 1.977.176 3.415 1.199 4.196 2.996.292.673.403 1.432.535 2.162.24 1.332.443 2.67.648 4.007.14.92.396 1.794.933 2.571.659.954 1.592 1.466 2.738 1.608.347.043.703.044 1.054.044 5.876.002 11.753.002 17.628 0 .68 0 1.361 0 2.001-.306.808-.385 1.363-1.017 1.783-1.765.777-1.383 1.32-2.837 1.45-4.438.09-1.087.261-2.172.475-3.242.296-1.487 1.187-2.574 2.522-3.312 1.407-.778 2.883-.752 4.377-.321.811.234 1.177 1.268.807 2.043-.38.798-1.19 1.077-2.068.8-.924-.292-2.12.238-2.438 1.301-.164.547-.233 1.122-.321 1.689-.291 1.861-.6 3.72-.845 5.588-.255 1.946.181 3.76 1.237 5.43.718 1.134 1.666 2.061 2.717 2.89a12.371 12.371 0 0 1 3.755 4.887 17.937 17.937 0 0 1 1.229 4.125c.313 1.846.568 3.7.898 5.544.247 1.382.512 2.769.88 4.122.335 1.224.915 2.355 2.04 3.09.388.254.825.447 1.259.62.333.133.437.037.534-.31.267-.97.562-1.931.81-2.906.217-.85.423-1.704.572-2.566.228-1.312.412-2.63.596-3.95.316-2.27.36-4.554.35-6.842a45.253 45.253 0 0 0-.43-6.026 59.137 59.137 0 0 0-.808-4.471 53.583 53.583 0 0 0-1.127-4.33c-.434-1.404-.96-2.78-1.493-4.152-.38-.978-.842-1.923-1.252-2.888-.303-.714-.104-1.44.478-1.866.574-.418 1.48-.412 2.012.093.272.257.462.627.612.978.684 1.602 1.404 3.192 1.989 4.828a48.356 48.356 0 0 1 1.412 4.753c.427 1.743.754 3.512 1.07 5.278.684 3.827.836 7.692.622 11.56-.117 2.094-.387 4.184-.706 6.26-.251 1.631-.645 3.246-1.043 4.852-.298 1.205-.704 2.385-1.065 3.574-.197.65-.71 1-1.287 1.267-1.79.825-3.667 1.344-5.653 1.354-2.914.013-5.195-1.164-6.75-3.626-.704-1.114-1.117-2.336-1.439-3.601-.559-2.205-1.2-4.384-2.452-6.33-.463-.718-.995-1.382-1.821-1.728-.177-.074-.42-.127-.586-.069-1.05.372-2.127.483-3.239.48-7.086-.012-14.172-.009-21.26-.002-.935 0-1.828-.178-2.713-.462-.19-.061-.46-.025-.643.066-1.134.57-1.776 1.58-2.34 2.644-.83 1.571-1.37 3.246-1.798 4.96-.322 1.29-.69 2.568-1.373 3.735-.912 1.56-2.149 2.766-3.87 3.414-1.247.472-2.553.594-3.89.47-1.763-.166-3.412-.671-4.994-1.44-.65-.314-.971-.832-1.158-1.487-.327-1.155-.701-2.296-1.012-3.456a42.56 42.56 0 0 1-.62-2.754C.963 42.2.72 41.01.562 39.81c-.183-1.395-.296-2.8-.4-4.204C.08 34.516.058 33.42-.006 31.91l.005.01Zm9.853 17.287.062.13c.386-.057.775-.094 1.157-.171 1.41-.281 2.413-1.073 3.027-2.355.44-.916.661-1.895.919-2.869.478-1.81 1.058-3.589 1.896-5.274.574-1.152 1.252-2.234 2.193-3.137.322-.31.302-.285-.002-.624-.559-.623-1.144-1.235-1.61-1.925-.437-.65-.075-1.672.607-2.027.797-.416 1.713-.177 2.166.539 1.186 1.872 2.89 3.033 5.136 3.05 7.36.06 14.723.034 22.085.004.664-.003 1.35-.2 1.981-.425 1.323-.47 2.314-1.369 3.09-2.52.536-.795 1.356-.912 2.088-.595.913.396 1.184 1.471.573 2.302-.474.646-1.018 1.243-1.551 1.846-.157.178-.172.289 0 .454.282.272.564.547.811.85 1.203 1.48 1.995 3.18 2.601 4.957.49 1.432.833 2.91 1.273 4.36.312 1.026.797 1.967 1.63 2.695.8.696 1.725 1.06 2.802.996.105-.007.202-.1.303-.152-.046-.08-.078-.174-.143-.235-1.274-1.222-2.053-2.732-2.463-4.402-.373-1.522-.616-3.076-.884-4.621-.26-1.504-.468-3.015-.718-4.52a16.45 16.45 0 0 0-1.054-3.64c-.715-1.716-1.775-3.167-3.28-4.303-1.967-1.485-3.39-3.367-4.184-5.692-.129-.375-.246-.754-.381-1.168-.143.09-.254.154-.36.226-1.141.778-2.386 1.196-3.794 1.192-5.997-.016-11.994-.006-17.992-.006-.165 0-.33-.004-.496.003-1.506.076-2.895-.286-4.156-1.1-.237-.153-.338-.097-.432.145-.295.755-.557 1.527-.919 2.25-.762 1.521-1.814 2.833-3.187 3.872-1.258.951-2.265 2.096-2.992 3.488-.874 1.672-1.37 3.462-1.71 5.293-.278 1.49-.48 2.993-.698 4.492-.235 1.62-.518 3.224-1.065 4.776-.47 1.333-1.116 2.56-2.132 3.575-.078.078-.135.177-.2.266h.003Z"/><path d="M17.484.583c1.895.066 3.416.563 4.79 1.452.574.372 1.103.573 1.817.46a43.5 43.5 0 0 1 3.836-.403c2.303-.153 4.61-.311 6.916-.363a96.278 96.278 0 0 1 6.4.082c1.867.082 3.727.284 5.588.45.93.084 1.855.214 2.786.301a.711.711 0 0 0 .45-.143A8.768 8.768 0 0 1 52.953.973 8.61 8.61 0 0 1 57.127.81c.796.162 1.596.3 2.395.448l2.234.414c.476.087.952.168 1.426.259.927.177 1.363.879 1.17 1.876-.153.794-.917 1.3-1.75 1.136-1.42-.278-2.832-.603-4.258-.85-1.056-.182-2.093-.5-3.191-.425-1.262.085-2.353.549-3.342 1.304-.35.267-.738.493-1.133.69-.173.086-.412.088-.613.065-1.571-.182-3.14-.39-4.711-.57a50.013 50.013 0 0 0-2.333-.2c-4.341-.291-8.685-.307-13.025.006-1.731.125-3.458.323-5.184.503-.569.059-1.132.16-1.695.252-.528.087-1-.021-1.424-.347-.773-.594-1.594-1.116-2.528-1.429-.716-.24-1.447-.319-2.206-.161-1.074.224-2.156.405-3.236.605-.767.142-1.533.281-2.298.43-.606.117-1.066-.167-1.465-.548-.362-.345-.497-.793-.362-1.281.196-.71.619-1.125 1.412-1.245 1.4-.212 2.781-.526 4.174-.78.842-.154 1.69-.278 2.301-.378l-.001-.002ZM13.938 21.672c0 .281-.016.564.003.845.053.803-.75 1.51-1.416 1.512-.786.004-1.543-.653-1.581-1.447a26.32 26.32 0 0 1-.008-1.885c.006-.276-.097-.354-.365-.347-.626.013-1.254.015-1.88-.004-.64-.02-1.32-.589-1.457-1.185-.157-.688.1-1.33.734-1.652.27-.138.607-.18.918-.201.493-.033.99-.025 1.484-.004.313.013.402-.112.394-.401a36.472 36.472 0 0 1-.002-1.657c.014-.8.566-1.454 1.356-1.62.803-.17 1.763.563 1.806 1.406.03.628.023 1.256.01 1.884-.005.286.11.388.387.383.495-.01.992.014 1.485-.004.9-.036 1.402.701 1.489 1.287.119.793-.313 1.538-1.048 1.729-.29.075-.61.036-.919.041-.351.005-.704.013-1.055-.001-.262-.01-.35.095-.338.345.016.324.005.65.005.975h-.002v.001ZM62.079 22.401a1.57 1.57 0 0 1-1.556 1.566c-.852.007-1.604-.731-1.604-1.575 0-.856.723-1.548 1.614-1.542.889.005 1.546.665 1.544 1.551h.002ZM65.758 18.865c0 .874-.666 1.538-1.555 1.546-.877.01-1.607-.695-1.611-1.552-.004-.828.725-1.545 1.582-1.555a1.547 1.547 0 0 1 1.584 1.56ZM60.525 16.894c-.883.004-1.612-.703-1.606-1.556.007-.837.734-1.555 1.58-1.563a1.564 1.564 0 0 1 1.58 1.54c.01.9-.654 1.575-1.554 1.579ZM56.838 17.322c.881 0 1.588.7 1.582 1.569-.006.85-.709 1.536-1.578 1.538a1.556 1.556 0 0 1-1.58-1.567 1.56 1.56 0 0 1 1.576-1.54ZM46.166 33.187c-.198.01-.396.035-.592.023-.86-.046-1.448-.765-1.37-1.658.08-.906.802-1.48 1.727-1.373.739.084 1.341-.208 1.686-.819.41-.726.14-1.628-.609-2.041-.757-.417-1.653-.213-2.052.52-.15.275-.206.627-.217.947-.034 1.043-.885 1.705-1.84 1.545-.983-.164-1.422-1.023-1.277-1.902.17-1.032.442-2.007 1.174-2.802 1.169-1.265 2.608-1.778 4.328-1.508 1.496.236 2.633.99 3.357 2.3.597 1.08.653 2.229.324 3.4-.382 1.36-1.246 2.328-2.524 2.953-.508.247-1.208.39-2.115.414v.001ZM26.405 24.028c2.107.107 3.877 1.36 4.478 3.338.227.747.2 1.386-.444 1.904-.851.685-2.14.29-2.445-.747-.132-.449-.26-.895-.666-1.197-.698-.52-1.763-.33-2.263.407a1.515 1.515 0 0 0 .518 2.145c.324.18.723.22 1.082.344.662.229 1.122.807 1.115 1.459-.007.664-.335 1.165-.969 1.412-.209.082-.48.091-.703.046-1.58-.326-2.76-1.177-3.45-2.636-1.01-2.132-.208-4.638 1.814-5.825a4.724 4.724 0 0 1 1.932-.648l.002-.002ZM36.376 26.832c-.78 0-1.562-.03-2.34.008-.9.043-1.44-.885-1.448-1.571-.008-.685.688-1.487 1.456-1.472 1.56.028 3.121.005 4.682.01.86.003 1.468.647 1.472 1.537a1.451 1.451 0 0 1-1.447 1.488H36.376Z"/></g><defs><clipPath id="a"><path fill="#fff" transform="translate(0 .583)" d="M0 0h73v52H0z"/></clipPath></defs></svg>