<svg xmlns="http://www.w3.org/2000/svg" width="75" height="52" fill="none"><g fill="#000"><path d="M66.373 40.773V5.876a1.093 1.093 0 0 0-1.094-1.093H8.992a1.093 1.093 0 0 0-1.094 1.093v34.897a1.093 1.093 0 0 0 1.094 1.093h56.287a1.093 1.093 0 0 0 1.094-1.093Zm-2.187-1.093H10.085V6.967h54.101V39.68Z"/><path d="M73.178 43.88h-2.604V4.49A3.91 3.91 0 0 0 66.668.582H7.603A3.91 3.91 0 0 0 3.697 4.49V43.88H1.093A1.094 1.094 0 0 0 0 44.973v2.706a3.909 3.909 0 0 0 3.905 3.904h66.461a3.909 3.909 0 0 0 3.905-3.904v-2.706a1.094 1.094 0 0 0-1.093-1.093ZM5.884 4.49a1.72 1.72 0 0 1 1.719-1.72h59.065a1.72 1.72 0 0 1 1.72 1.72v39.39H45.346a1.093 1.093 0 0 0-1.093 1.093v.584H30.017v-.584a1.094 1.094 0 0 0-1.093-1.093H5.884V4.49Zm66.2 43.189a1.72 1.72 0 0 1-1.718 1.718H3.905a1.72 1.72 0 0 1-1.718-1.718v-1.612H27.83v.584a1.093 1.093 0 0 0 1.093 1.093h16.423a1.093 1.093 0 0 0 1.093-1.093v-.584h25.644v1.612Z"/></g></svg>