<svg xmlns="http://www.w3.org/2000/svg" width="73" height="74" fill="none"><g fill="#000" clip-path="url(#a)"><path d="M6.083 29.784c.324.001.635-.126.864-.353l4.867-4.867a1.222 1.222 0 0 0-1.728-1.728L5.22 27.703a1.217 1.217 0 0 0 .863 2.08ZM6.083 37.084c.324.001.635-.126.864-.353l12.167-12.167a1.222 1.222 0 0 0-1.728-1.728L5.22 35.003a1.217 1.217 0 0 0 .863 2.08Z"/><path d="M69.35.583H37.717a3.65 3.65 0 0 0-3.65 3.65v13.384H6.083A6.083 6.083 0 0 0 0 23.7v31.634a6.083 6.083 0 0 0 6.083 6.083h13.384v4.867h-3.65a3.65 3.65 0 1 0 0 7.3H69.35a3.65 3.65 0 0 0 3.65-3.65v-65.7a3.65 3.65 0 0 0-3.65-3.65ZM6.083 20.05h43.8a3.65 3.65 0 0 1 3.65 3.65v29.2h-51.1V23.7a3.65 3.65 0 0 1 3.65-3.65Zm-3.65 35.283h51.1a3.65 3.65 0 0 1-3.65 3.65h-43.8a3.65 3.65 0 0 1-3.65-3.65ZM21.9 61.418h12.167v4.867H21.9v-4.867Zm15.817 9.733h-21.9a1.217 1.217 0 0 1 0-2.433H40.15a1.217 1.217 0 0 1 0 2.433h-2.433Zm32.85-1.217c0 .672-.545 1.217-1.217 1.217H43.581a3.65 3.65 0 0 0-3.431-4.867H36.5v-4.866h13.383a6.083 6.083 0 0 0 6.084-6.084V23.7a6.083 6.083 0 0 0-6.084-6.083H36.5V4.233c0-.671.545-1.216 1.217-1.216H69.35c.672 0 1.217.545 1.217 1.217v65.7Z"/><path d="M65.7 6.667H41.367A2.433 2.433 0 0 0 38.933 9.1v2.433a2.433 2.433 0 0 0 2.434 2.434H65.7a2.433 2.433 0 0 0 2.433-2.434V9.1A2.433 2.433 0 0 0 65.7 6.667Zm-24.333 4.866V9.1H65.7v2.433H41.367ZM63.267 24.917a3.65 3.65 0 1 0 0-7.3 3.65 3.65 0 0 0 0 7.3Zm0-4.867a1.217 1.217 0 1 1 0 2.434 1.217 1.217 0 0 1 0-2.434ZM66.917 31a3.65 3.65 0 1 0-7.3 0 3.65 3.65 0 0 0 7.3 0Zm-3.65 1.217a1.217 1.217 0 1 1 0-2.434 1.217 1.217 0 0 1 0 2.434ZM47.45 63.85c-.672 0-1.217.545-1.217 1.217V67.5a1.217 1.217 0 0 0 2.434 0v-2.433c0-.672-.545-1.217-1.217-1.217ZM52.317 63.85c-.672 0-1.217.545-1.217 1.217V67.5a1.217 1.217 0 1 0 2.433 0v-2.433c0-.672-.544-1.217-1.216-1.217ZM57.183 63.85c-.672 0-1.216.545-1.216 1.217V67.5a1.217 1.217 0 1 0 2.433 0v-2.433c0-.672-.545-1.217-1.217-1.217ZM62.05 63.85c-.672 0-1.217.545-1.217 1.217V67.5a1.217 1.217 0 0 0 2.434 0v-2.433c0-.672-.545-1.217-1.217-1.217ZM66.917 63.85c-.672 0-1.217.545-1.217 1.217V67.5a1.217 1.217 0 0 0 2.433 0v-2.433c0-.672-.544-1.217-1.216-1.217Z"/></g><defs><clipPath id="a"><path fill="#fff" d="M0 .583h73v73H0z"/></clipPath></defs></svg>