<svg xmlns="http://www.w3.org/2000/svg" width="72" height="73" viewBox="0 0 72 72"><defs><clipPath id="a"><path d="M19 9h53v60H19Zm0 0"/></clipPath><clipPath id="b"><path d="M0 19.09 53.117.492 71.922 53.04 18.8 71.637Zm0 0"/></clipPath><clipPath id="c"><path d="M0 11h33v33H0Zm0 0"/></clipPath><clipPath id="d"><path d="M0 19.09 53.117.492 71.922 53.04 18.8 71.637Zm0 0"/></clipPath></defs><g clip-path="url(#a)"><g clip-path="url(#b)"><path d="M55.367 9.559 34.121 17a.924.924 0 0 0-.574 1.184l2.82 7.882a.943.943 0 0 0 1.461.422l.984-.758a2.456 2.456 0 0 1 3.422.442 2.397 2.397 0 0 1-.441 3.387 2.47 2.47 0 0 1-1.434.5l-1.242.023a.934.934 0 0 0-.87 1.238l2.507 7.008-7.082 2.48a.926.926 0 0 0-.426 1.446l.766.973a2.398 2.398 0 0 1-.446 3.386 2.465 2.465 0 0 1-3.425-.437 2.411 2.411 0 0 1-.504-1.418l-.024-1.23a.937.937 0 0 0-1.254-.86l-7.964 2.789a.928.928 0 0 0-.575 1.188l7.524 21.02a.938.938 0 0 0 1.195.562l42.496-14.88a.926.926 0 0 0 .57-1.187L56.566 10.125a.943.943 0 0 0-1.199-.566Zm-9.652 42.488c.004.101.02.2.055.293l2.507 7.008-19.476 6.82-6.895-19.27 5.852-2.05c.086 2.359 2.086 4.207 4.469 4.125 2.386-.082 4.25-2.063 4.168-4.422a4.233 4.233 0 0 0-.868-2.422l5.856-2.05 2.508 7.007a.935.935 0 0 0 1.195.562.826.826 0 0 0 .266-.14l.98-.758a2.461 2.461 0 0 1 3.426.441 2.398 2.398 0 0 1-.446 3.387c-.41.313-.914.488-1.43.5l-1.245.024a.936.936 0 0 0-.922.945Zm23.808-.14-19.476 6.82-2.074-5.793c2.386-.082 4.254-2.059 4.168-4.418-.082-2.36-2.082-4.203-4.465-4.121a4.322 4.322 0 0 0-2.45.855l-2.074-5.79 7.082-2.48a.926.926 0 0 0 .426-1.449l-.762-.968a2.397 2.397 0 0 1 .442-3.387 2.457 2.457 0 0 1 3.426.437c.316.407.492.903.507 1.418l.02 1.23a.936.936 0 0 0 .957.91c.102 0 .203-.019.297-.05l7.082-2.48Zm-7.52-21.02-5.855 2.05c-.082-2.359-2.082-4.203-4.468-4.12-2.383.081-4.25 2.058-4.168 4.417.031.875.336 1.723.867 2.422l-5.852 2.051-2.074-5.789a4.299 4.299 0 0 0 3.414-1.84 4.245 4.245 0 0 0-1.058-5.953 4.358 4.358 0 0 0-5.106.105l-2.07-5.789 19.476-6.82Zm0 0" style="stroke:none;fill-rule:nonzero;fill:#000;fill-opacity:1"/></g></g><g clip-path="url(#c)"><g clip-path="url(#d)"><path d="M28.168 17.715a4.355 4.355 0 0 0-2.45.86l-2.386-6.669a.943.943 0 0 0-1.2-.566L.888 18.78a.928.928 0 0 0-.575 1.188l7.524 21.015a.937.937 0 0 0 1.195.567l6.742-2.36c.082 2.36 2.082 4.204 4.465 4.121 2.387-.082 4.254-2.058 4.168-4.417a4.233 4.233 0 0 0-.867-2.422l6.742-2.36a.929.929 0 0 0 .57-1.187l-2.386-6.668c2.387-.082 4.254-2.059 4.168-4.418-.082-2.36-2.082-4.207-4.465-4.125Zm1.637 6.187c-.41.313-.914.489-1.43.5l-1.246.024a.934.934 0 0 0-.922.945c.004.102.02.2.055.293l2.508 7.008-7.082 2.476a.928.928 0 0 0-.43 1.45l.765.968a2.394 2.394 0 0 1-.445 3.387 2.453 2.453 0 0 1-3.422-.437 2.397 2.397 0 0 1-.508-1.418l-.023-1.23a.934.934 0 0 0-1.25-.856l-7.082 2.476-6.895-19.265 19.477-6.82 2.508 7.007a.941.941 0 0 0 1.46.422l.981-.758a2.464 2.464 0 0 1 3.426.438 2.4 2.4 0 0 1-.445 3.39Zm0 0" style="stroke:none;fill-rule:nonzero;fill:#000;fill-opacity:1"/></g></g></svg>