<svg xmlns="http://www.w3.org/2000/svg" width="79" height="80" fill="none"><g fill="#000"><path d="M66.985 14.799h-54.97a5.504 5.504 0 0 0-5.496 5.496v39.578a5.504 5.504 0 0 0 5.496 5.497h54.968a5.503 5.503 0 0 0 5.497-5.497V20.295a5.5 5.5 0 0 0-5.495-5.496Zm1.098 45.073a1.1 1.1 0 0 1-1.1 1.1H12.015c-.606 0-1.1-.494-1.1-1.1V20.295a1.1 1.1 0 0 1 1.1-1.1h54.968c.606 0 1.1.494 1.1 1.1v39.577Z"/><path d="M62.587 22.476h-7.498a2.199 2.199 0 0 0 0 4.397h2.19l-3.745 3.745a2.198 2.198 0 1 0 3.108 3.11l3.745-3.745v2.19a2.199 2.199 0 0 0 4.397 0v-7.498a2.196 2.196 0 0 0-2.198-2.199ZM25.466 46.405c-.859-.86-2.25-.86-3.109 0l-3.745 3.745v-2.191a2.199 2.199 0 0 0-4.397 0v7.497c0 1.215.985 2.199 2.198 2.199h7.498a2.199 2.199 0 0 0 0-4.397h-2.19l3.745-3.745a2.199 2.199 0 0 0 0-3.108Z"/></g></svg>