<svg xmlns="http://www.w3.org/2000/svg" width="73" height="74" viewBox="0 0 73 73"><path style="stroke:none;fill-rule:nonzero;fill:#000;fill-opacity:1" d="M71.574 37.996h-3.836a1.417 1.417 0 0 1-1.425-1.41c0-.781.636-1.41 1.425-1.41h3.836c.79 0 1.426.629 1.426 1.41 0 .777-.637 1.41-1.426 1.41ZM58.957 15.992c-.367 0-.73-.137-1.008-.414a1.394 1.394 0 0 1 0-1.992l2.711-2.684a1.438 1.438 0 0 1 2.016 0 1.396 1.396 0 0 1 0 1.993l-2.711 2.683a1.422 1.422 0 0 1-1.008.414Zm2.711 46.692c-.363 0-.73-.137-1.008-.414l-2.71-2.684a1.398 1.398 0 0 1 0-1.996 1.436 1.436 0 0 1 2.015 0l2.71 2.687c.56.551.56 1.442 0 1.993-.277.277-.64.414-1.007.414ZM5.262 37.996H1.426c-.79 0-1.426-.633-1.426-1.41 0-.781.637-1.41 1.426-1.41h3.836c.789 0 1.426.629 1.426 1.41 0 .777-.637 1.41-1.426 1.41Zm6.07 24.688c-.367 0-.73-.137-1.008-.414a1.394 1.394 0 0 1 0-1.993l2.711-2.687a1.438 1.438 0 0 1 2.016 0c.558.55.558 1.445.004 1.996L12.34 62.27a1.439 1.439 0 0 1-1.008.414Zm2.711-46.692a1.43 1.43 0 0 1-1.008-.414l-2.71-2.683a1.394 1.394 0 0 1 0-1.993 1.436 1.436 0 0 1 2.015 0l2.71 2.684c.56.55.56 1.441 0 1.992-.277.277-.64.414-1.007.414Zm35.605 8.543c-.597 0-1.14-.383-1.343-.933a1.41 1.41 0 0 1 .422-1.551 1.447 1.447 0 0 1 1.671-.121c.5.304.762.902.645 1.472a1.434 1.434 0 0 1-1.395 1.133Zm0 0"/><path style="stroke:none;fill-rule:nonzero;fill:#000;fill-opacity:1" d="M64.184 37.523a1.419 1.419 0 0 0-.043-1.921l-8.91-8.946a1.432 1.432 0 0 0-2.016-.015 1.394 1.394 0 0 0-.016 1.992l6.516 6.543h-9.313l-12.476-12.41V13.52l6.11 6.046a1.435 1.435 0 0 0 2.015 0 1.394 1.394 0 0 0 0-1.992l-8.535-8.453-.012-.012a1.436 1.436 0 0 0-2.016.008s-.004 0-.004.004L8.875 35.586c-.008.012-.035.039-.078.086a1.4 1.4 0 0 0 .074 1.91h.004s26.613 26.473 26.617 26.473c0 0 0 .004.004.007.57.493 1.422.497 1.996.008l.02-.015 26.61-26.47c.01-.007.03-.03.062-.062ZM47.8 36.586 36.5 47.824 25.2 36.586l11.3-11.238ZM35.074 13.527v9.239l-12.476 12.41h-9.29Zm-12.476 24.47 12.476 12.41v9.234L13.31 37.996ZM37.926 59.64v-9.235l12.476-12.41h9.29Zm0 0"/></svg>