<svg width="768" height="584" viewBox="0 0 768 584" fill="none" xmlns="http://www.w3.org/2000/svg">
<g clip-path="url(#clip0_23_3867)">
<g opacity="0.1">
<path d="M524.071 176.067L510.944 282.357L543.604 310.442L543.71 310.521L543.842 310.494L586.19 302.489L628.061 203.887L608.502 216.332L608.158 216.543L594.765 224.839L587.328 210.968L587.143 210.625L576.079 189.99H576.053L556.15 202.329L555.806 202.54L542.413 210.81L534.949 196.965L534.764 196.595L524.071 176.067Z" fill="url(#paint0_linear_23_3867)"/>
<path d="M701.984 131.178L688.883 237.468L721.543 265.553L721.622 265.632L721.755 265.606L764.102 257.6L806 158.999L786.441 171.443L786.097 171.654L772.704 179.95L765.267 166.08L765.055 165.71L753.992 145.102L734.062 157.44L733.718 157.651L720.326 165.921L712.888 152.077L712.703 151.707L701.984 131.178Z" fill="url(#paint1_linear_23_3867)"/>
<path d="M650.505 309.675L637.378 415.965L670.038 444.05L670.144 444.13L670.276 444.103L712.624 436.098L754.495 337.496L734.962 349.94L734.591 350.152L721.226 358.448L713.762 344.577L713.577 344.207L702.513 323.599H702.487L682.583 335.937L682.239 336.149L668.847 344.418L661.41 330.574L661.198 330.204L650.505 309.675Z" fill="url(#paint2_linear_23_3867)"/>
<path d="M475.345 356.519L462.244 462.809L494.878 490.894L494.984 490.973L495.116 490.947L537.464 482.941L579.335 384.34L559.802 396.784L559.458 396.995L546.066 405.291L538.628 391.421L538.417 391.051L527.353 370.443L507.424 382.755L507.079 382.992L493.687 391.262L486.25 377.418L486.065 377.048L475.345 356.519Z" fill="url(#paint3_linear_23_3867)"/>
<path d="M296.771 402.702L283.67 508.992L316.304 537.077L316.41 537.156L316.542 537.13L358.89 529.125L400.761 430.523L381.228 442.967L380.884 443.178L367.491 451.475L360.054 437.604L359.842 437.26L348.779 416.626L328.849 428.964L328.505 429.176L315.113 437.472L307.675 423.601L307.49 423.231L296.771 402.702Z" fill="url(#paint4_linear_23_3867)"/>
<path d="M345.656 225.764L332.528 332.054L365.189 360.112L365.295 360.191H365.427L407.774 352.16L449.646 253.558L430.086 266.002L429.742 266.214L416.376 274.51L408.913 260.639L408.727 260.295L397.664 239.661H397.638L377.734 251.999L377.39 252.211L363.998 260.507L356.56 246.636L356.349 246.292L345.656 225.764Z" fill="url(#paint5_linear_23_3867)"/>
<path d="M395.176 48.7988L382.075 155.089L414.735 183.174L414.815 183.253L414.947 183.227L457.295 175.221L499.192 76.6197L479.633 89.0638L479.289 89.2751L465.896 97.5448L458.459 83.7004L458.247 83.3305L447.184 62.7225V62.696L427.254 75.0344L426.91 75.2458L413.518 83.5419L406.081 69.6711L405.895 69.3276L395.176 48.7988Z" fill="#7B7B7B"/>
<path d="M219.857 94.3213L206.756 200.638L239.417 228.696L239.522 228.775H239.628L281.976 220.744L323.873 122.142L304.314 134.586L303.97 134.798L290.578 143.094L283.14 129.223L282.955 128.879L271.865 108.245L251.936 120.583L251.591 120.795L238.199 129.091L230.762 115.22L230.577 114.876L219.857 94.3213Z" fill="url(#paint6_linear_23_3867)"/>
<path d="M43.2416 139.87L30.1404 246.16L62.8009 274.245L62.9068 274.325L63.0126 274.298L105.36 266.293L147.258 167.691L127.698 180.135L127.354 180.347L113.962 188.643L106.525 174.772L106.313 174.428L95.2497 153.794L75.3199 166.132L74.9758 166.344L61.5834 174.64L54.1461 160.769L53.9609 160.399L43.2416 139.87Z" fill="url(#paint7_linear_23_3867)"/>
<path d="M-8.89873 318.791L-22 425.08L10.6605 453.139L10.7664 453.245L10.8723 453.218L53.2198 445.213L95.1174 346.611L75.5581 359.055L75.214 359.24L61.8216 367.536L54.3844 353.692L54.1991 353.322L43.1093 332.714V332.688L23.1795 345.026L22.8354 345.237L9.44304 353.534L2.00575 339.663L1.82048 339.319L-8.89873 318.791Z" fill="#7B7B7B"/>
<path d="M168.908 271.286L155.807 377.576L188.467 405.661L188.547 405.741L188.679 405.714L231.026 397.709L272.924 299.107L253.365 311.551L253.021 311.763L239.628 320.059L232.191 306.188L231.979 305.844L220.916 285.21L200.986 297.548L200.642 297.76L187.25 306.056L179.812 292.185L179.627 291.815L168.908 271.286Z" fill="url(#paint8_linear_23_3867)"/>
<path d="M121.346 449.546L108.219 555.836L140.879 583.921L140.985 584L141.117 583.974L183.438 575.968L225.336 477.367L205.777 489.811L205.433 490.022L192.04 498.318L184.603 484.447L184.418 484.104L173.354 463.47H173.328L153.398 475.808L153.081 476.019L139.688 484.315L132.224 470.445L132.039 470.075L121.346 449.546Z" fill="#7B7B7B"/>
<path d="M572.983 0L559.881 106.29L592.542 134.375L592.621 134.454L592.754 134.428L635.101 126.422L676.999 27.8208L657.44 40.2649L657.095 40.4763L643.703 48.7724L636.266 34.9016L636.054 34.5317L624.991 13.9236L605.061 26.262L604.717 26.4734L591.324 34.743L583.887 20.8987L583.702 20.5288L572.983 0Z" fill="#7B7B7B"/>
</g>
</g>
<defs>
<linearGradient id="paint0_linear_23_3867" x1="590.954" y1="318.791" x2="513.552" y2="44.685" gradientUnits="userSpaceOnUse">
<stop offset="0.02" stop-color="white"/>
<stop offset="1"/>
</linearGradient>
<linearGradient id="paint1_linear_23_3867" x1="801.104" y1="147.612" x2="688.957" y2="224.971" gradientUnits="userSpaceOnUse">
<stop offset="0.02" stop-color="white"/>
<stop offset="0.59" stop-color="#575453"/>
<stop offset="1"/>
</linearGradient>
<linearGradient id="paint2_linear_23_3867" x1="715.35" y1="451.844" x2="689.682" y2="352.111" gradientUnits="userSpaceOnUse">
<stop offset="0.02" stop-color="white"/>
<stop offset="0.59" stop-color="#575453"/>
<stop offset="1"/>
</linearGradient>
<linearGradient id="paint3_linear_23_3867" x1="503.162" y1="331.34" x2="531.518" y2="480.239" gradientUnits="userSpaceOnUse">
<stop offset="0.02" stop-color="white"/>
<stop offset="0.59" stop-color="#575453"/>
<stop offset="1"/>
</linearGradient>
<linearGradient id="paint4_linear_23_3867" x1="366.936" y1="540.115" x2="319.761" y2="405.398" gradientUnits="userSpaceOnUse">
<stop offset="0.02" stop-color="white"/>
<stop offset="0.59" stop-color="#575453"/>
<stop offset="1"/>
</linearGradient>
<linearGradient id="paint5_linear_23_3867" x1="398.802" y1="153.266" x2="365.755" y2="754.076" gradientUnits="userSpaceOnUse">
<stop offset="0.02" stop-color="white"/>
<stop offset="0.59" stop-color="#575453"/>
<stop offset="1"/>
</linearGradient>
<linearGradient id="paint6_linear_23_3867" x1="184.418" y1="184.706" x2="328.564" y2="125.61" gradientUnits="userSpaceOnUse">
<stop offset="0.02" stop-color="white"/>
<stop offset="0.59" stop-color="#575453"/>
<stop offset="1"/>
</linearGradient>
<linearGradient id="paint7_linear_23_3867" x1="44.7767" y1="103.516" x2="154.604" y2="363.026" gradientUnits="userSpaceOnUse">
<stop offset="0.02" stop-color="white"/>
<stop offset="0.59" stop-color="#575453"/>
<stop offset="1"/>
</linearGradient>
<linearGradient id="paint8_linear_23_3867" x1="194.555" y1="287.773" x2="257.908" y2="450.15" gradientUnits="userSpaceOnUse">
<stop offset="0.02" stop-color="white"/>
<stop offset="0.59" stop-color="#575453"/>
<stop offset="1"/>
</linearGradient>
<clipPath id="clip0_23_3867">
<rect width="828" height="584" fill="white" transform="translate(-22)"/>
</clipPath>
</defs>
</svg>
