<svg width="104" height="51" viewBox="0 0 104 51" fill="none" xmlns="http://www.w3.org/2000/svg">
<g id="Group 265">
<path id="Vector" d="M8.50532 34.0559H13.4195L21.7176 50.9999H17.1285L15.5757 47.7082H6.48974L4.93686 50.9999H0.208679L8.50683 34.0559H8.50532ZM8.11066 44.2547H13.929L11.0078 38.0886L8.11066 44.2547Z" fill="#00031F"/>
<path id="Vector_2" d="M28.047 45.3902V50.9999H23.5032V34.0559H34.1193C34.9691 34.0559 35.7841 34.1224 36.5643 34.2525C37.3446 34.384 38.0356 34.6396 38.6389 35.0176C39.2422 35.3971 39.72 35.9339 40.0753 36.6279C40.4307 37.3235 40.6091 38.2277 40.6091 39.3405C40.6091 40.3143 40.47 41.1248 40.1918 41.7749C39.9135 42.4251 39.5264 42.9498 39.032 43.3505C39.5567 43.6136 39.971 43.981 40.2719 44.4513C40.5728 44.923 40.724 45.5445 40.724 46.3171V50.9999H36.1803V46.8282C36.1803 46.2869 36.0684 45.9119 35.8446 45.7032C35.6208 45.4946 35.146 45.3902 34.4187 45.3902H28.0439H28.047ZM36.2529 39.8728C36.2529 39.4403 36.203 39.088 36.1017 38.8174C36.0003 38.5467 35.8612 38.335 35.6843 38.1793C35.5059 38.025 35.2972 37.9207 35.0583 37.8663C34.8179 37.8118 34.5594 37.7846 34.2811 37.7846H28.0454V41.9806H34.2811C34.5594 41.9806 34.8179 41.9503 35.0583 41.8883C35.2972 41.8263 35.5059 41.719 35.6843 41.5632C35.8612 41.409 36.0003 41.1958 36.1017 40.9252C36.2014 40.6545 36.2529 40.3037 36.2529 39.8713V39.8728Z" fill="#00031F"/>
<path id="Vector_3" d="M59.224 44.1607H48.1679V47.3361H59.3177V50.9982H43.6241V34.0542H59.2708V37.7164H48.1679V40.8917H59.224V44.1607Z" fill="#00031F"/>
<path id="Vector_4" d="M75.9351 46.0614V34.0542H80.1311V50.9982H74.6136L66.3608 39.4084V50.9982H62.1422V34.0542H67.5206L75.9351 46.0614Z" fill="#00031F"/>
<path id="Vector_5" d="M90.2151 34.0559H95.1292L103.427 50.9999H98.8383L97.2854 47.7082H88.1995L86.6466 50.9999H81.9185L90.2166 34.0559H90.2151ZM89.8204 44.2547H95.6388L92.7175 38.0886L89.8204 44.2547Z" fill="#00031F"/>
<path id="Vector_6" d="M69.2065 0.00146484V29.5802H62.5928V10.5435L56.1742 18.0327L56.0608 18.1642L51.641 23.3248L47.2198 18.1642L47.1049 18.0327L40.7195 10.5843V29.5802H34.1073V0.00146484H40.7195L51.641 12.745L62.5595 0.00146484H69.2065Z" fill="#1170F4"/>
<path id="Vector_7" d="M28.2829 14.056V29.5802H13.1095C10.9261 29.5802 9.00728 29.3852 7.36368 28.9936C5.71857 28.6019 4.34715 27.8686 3.25545 26.789C2.16375 25.7109 1.34722 24.214 0.808925 22.2967C0.269123 20.3824 0 17.8876 0 14.8105C0 11.7335 0.269123 9.23863 0.808925 7.32437C1.34873 5.41012 2.16375 3.90714 3.25545 2.8109C4.34715 1.7192 5.71857 0.976785 7.36368 0.586676C9.00879 0.195055 10.9261 0 13.1095 0H28.2013V6.51543H13.1488C12.1508 6.51543 11.3116 6.63639 10.6373 6.87983C9.96288 7.12176 9.41706 7.5542 8.99973 8.17415C8.5824 8.79409 8.27848 9.6363 8.08947 10.7053C7.90047 11.7698 7.8067 13.1382 7.8067 14.8105C7.8067 16.4829 7.90047 17.8543 8.08947 18.9188C8.27848 19.9833 8.58089 20.827 8.99973 21.4469C9.41706 22.0669 9.96288 22.4918 10.6373 22.7216C11.3116 22.9514 12.1508 23.0648 13.1488 23.0648H21.3214V17.6109L28.2814 14.0545L28.2829 14.056Z" fill="#1170F4"/>
<path id="Vector_8" d="M103.636 0V6.94938H92.3213V29.5787H85.3719V6.94938H74.0573V0H103.636Z" fill="#1170F4"/>
</g>
</svg>
