<svg width="104" height="52" viewBox="0 0 104 52" fill="none" xmlns="http://www.w3.org/2000/svg">
<g id="Group 263">
<path id="Vector" d="M8.50529 34.6394H13.4195L21.7176 51.5834H17.1285L15.5756 48.2917H6.48971L4.93683 51.5834H0.208649L8.5068 34.6394H8.50529ZM8.11063 44.8382H13.929L11.0077 38.672L8.11063 44.8382Z" fill="white"/>
<path id="Vector_2" d="M28.047 45.9737V51.5834H23.5033V34.6394H34.1194C34.9691 34.6394 35.7842 34.7059 36.5644 34.836C37.3446 34.9675 38.0356 35.2231 38.6389 35.6011C39.2422 35.9806 39.72 36.5174 40.0754 37.2114C40.4307 37.9069 40.6091 38.8112 40.6091 39.924C40.6091 40.8978 40.47 41.7082 40.1918 42.3584C39.9136 43.0086 39.5265 43.5333 39.032 43.934C39.5567 44.1971 39.971 44.5645 40.2719 45.0348C40.5728 45.5065 40.724 46.128 40.724 46.9006V51.5834H36.1803V47.4117C36.1803 46.8704 36.0684 46.4954 35.8446 46.2867C35.6209 46.0781 35.146 45.9737 34.4187 45.9737H28.044H28.047ZM36.2529 40.4563C36.2529 40.0238 36.203 39.6715 36.1017 39.4009C36.0004 39.1302 35.8613 38.9185 35.6844 38.7628C35.5059 38.6085 35.2972 38.5042 35.0583 38.4498C34.8179 38.3953 34.5594 38.3681 34.2812 38.3681H28.0455V42.5641H34.2812C34.5594 42.5641 34.8179 42.5338 35.0583 42.4718C35.2972 42.4098 35.5059 42.3025 35.6844 42.1467C35.8613 41.9925 36.0004 41.7793 36.1017 41.5086C36.2015 41.238 36.2529 40.8872 36.2529 40.4548V40.4563Z" fill="white"/>
<path id="Vector_3" d="M59.224 44.7442H48.1679V47.9196H59.3177V51.5817H43.6241V34.6377H59.2708V38.2999H48.1679V41.4752H59.224V44.7442Z" fill="white"/>
<path id="Vector_4" d="M75.9351 46.6449V34.6377H80.1311V51.5817H74.6136L66.3608 39.9919V51.5817H62.1422V34.6377H67.5206L75.9351 46.6449Z" fill="white"/>
<path id="Vector_5" d="M90.2151 34.6394H95.1292L103.427 51.5834H98.8383L97.2854 48.2917H88.1995L86.6466 51.5834H81.9185L90.2166 34.6394H90.2151ZM89.8204 44.8382H95.6388L92.7175 38.672L89.8204 44.8382Z" fill="white"/>
<path id="Vector_6" d="M69.2065 0.584961V30.1637H62.5928V11.127L56.1742 18.6162L56.0608 18.7477L51.641 23.9083L47.2198 18.7477L47.1049 18.6162L40.7195 11.1678V30.1637H34.1073V0.584961H40.7195L51.641 13.3285L62.5595 0.584961H69.2065Z" fill="#1170F4"/>
<path id="Vector_7" d="M28.2829 14.6395V30.1637H13.1095C10.9261 30.1637 9.00728 29.9687 7.36368 29.5771C5.71857 29.1854 4.34715 28.4521 3.25545 27.3725C2.16375 26.2944 1.34722 24.7975 0.808925 22.8802C0.269123 20.9659 0 18.4711 0 15.394C0 12.317 0.269123 9.82213 0.808925 7.90787C1.34873 5.99361 2.16375 4.49063 3.25545 3.3944C4.34715 2.3027 5.71857 1.56028 7.36368 1.17017C9.00879 0.778551 10.9261 0.583496 13.1095 0.583496H28.2013V7.09892H13.1488C12.1508 7.09892 11.3116 7.21989 10.6373 7.46333C9.96288 7.70525 9.41706 8.1377 8.99973 8.75764C8.5824 9.37758 8.27848 10.2198 8.08947 11.2888C7.90047 12.3533 7.8067 13.7217 7.8067 15.394C7.8067 17.0664 7.90047 18.4378 8.08947 19.5023C8.27848 20.5668 8.58089 21.4105 8.99973 22.0304C9.41706 22.6504 9.96288 23.0752 10.6373 23.3051C11.3116 23.5349 12.1508 23.6483 13.1488 23.6483H21.3214V18.1943L28.2814 14.638L28.2829 14.6395Z" fill="#1170F4"/>
<path id="Vector_8" d="M103.636 0.583496V7.53288H92.3213V30.1622H85.3719V7.53288H74.0573V0.583496H103.636Z" fill="#1170F4"/>
</g>
</svg>
